<?xml version="1.0" encoding="UTF-8"?>
<svg version="1.1" xmlns="http://www.w3.org/2000/svg" width="196" height="196">
<path d="M0 0 C1.74311211 -0.0076664 1.74311211 -0.0076664 3.5214386 -0.01548767 C7.34865525 -0.02934439 11.17569098 -0.02842952 15.00292969 -0.02612305 C16.99943887 -0.02902863 18.99594813 -0.03193948 20.9924562 -0.03552979 C27.26696174 -0.04659879 33.54140741 -0.04707787 39.81591797 -0.04101562 C46.25974587 -0.03498481 52.70335493 -0.04727 59.14714551 -0.06858569 C64.7041503 -0.0862829 70.26108597 -0.09219013 75.81811786 -0.08894795 C79.12610108 -0.08714698 82.43389512 -0.09099196 85.74185944 -0.10366249 C89.43875164 -0.1160834 93.13514621 -0.10920041 96.83203125 -0.09765625 C97.90775894 -0.10529999 98.98348663 -0.11294373 100.09181213 -0.12081909 C107.48587485 -0.07012323 114.08614275 1.19387551 121.17480469 3.2746582 C121.17480469 3.9346582 121.17480469 4.5946582 121.17480469 5.2746582 C121.89667969 5.3365332 122.61855469 5.3984082 123.36230469 5.4621582 C127.08997374 6.53904037 128.58184297 8.42240031 131.17480469 11.2746582 C132.56699219 12.6049707 132.56699219 12.6049707 133.98730469 13.9621582 C136.17480469 16.2746582 136.17480469 16.2746582 136.17480469 18.2746582 C136.83480469 18.2746582 137.49480469 18.2746582 138.17480469 18.2746582 C138.50480469 19.9246582 138.83480469 21.5746582 139.17480469 23.2746582 C139.83480469 23.2746582 140.49480469 23.2746582 141.17480469 23.2746582 C143.75559033 31.19262489 144.60909633 38.33872399 144.56298828 46.63989258 C144.57087372 48.41533195 144.57087372 48.41533195 144.57891846 50.22663879 C144.59203396 54.1073661 144.58341001 57.98767732 144.57324219 61.8684082 C144.57391199 64.58402839 144.57817498 67.29964138 144.5819397 70.01525879 C144.58737734 75.69405557 144.5802583 81.37273479 144.56591797 87.05151367 C144.54959521 93.59029675 144.55488515 100.12879907 144.57139719 106.66757536 C144.5850692 112.31040944 144.58690397 117.95315965 144.57908118 123.59600496 C144.57443583 126.95366145 144.57489329 130.31108189 144.58369064 133.66874695 C144.59135502 137.41582912 144.5796304 141.1623809 144.56298828 144.90942383 C144.56906097 146.00273514 144.57513367 147.09604645 144.58139038 148.2224884 C144.52328949 155.325288 143.37558786 161.52255621 141.17480469 168.2746582 C140.51480469 168.2746582 139.85480469 168.2746582 139.17480469 168.2746582 C138.84480469 169.9246582 138.51480469 171.5746582 138.17480469 173.2746582 C137.51480469 173.2746582 136.85480469 173.2746582 136.17480469 173.2746582 C135.96855469 173.9965332 135.76230469 174.7184082 135.54980469 175.4621582 C133.69951481 179.24684204 131.57240031 180.79724473 128.17480469 183.2746582 C127.51480469 183.2746582 126.85480469 183.2746582 126.17480469 183.2746582 C126.17480469 183.9346582 126.17480469 184.5946582 126.17480469 185.2746582 C124.52480469 185.6046582 122.87480469 185.9346582 121.17480469 186.2746582 C121.17480469 186.9346582 121.17480469 187.5946582 121.17480469 188.2746582 C113.256838 190.85544384 106.1107389 191.70894984 97.80957031 191.6628418 C96.03413094 191.67072723 96.03413094 191.67072723 94.2228241 191.67877197 C90.34209679 191.69188748 86.46178558 191.68326353 82.58105469 191.6730957 C79.8654345 191.6737655 77.14982151 191.6780285 74.4342041 191.68179321 C68.75540732 191.68723086 63.0767281 191.68011182 57.39794922 191.66577148 C50.85916614 191.64944873 44.32066382 191.65473866 37.78188753 191.6712507 C32.13905345 191.68492272 26.49630324 191.68675748 20.85345793 191.67893469 C17.49580144 191.67428934 14.138381 191.67474681 10.78071594 191.68354416 C7.03363377 191.69120853 3.28708199 191.67948391 -0.45996094 191.6628418 C-2.0999279 191.67195084 -2.0999279 191.67195084 -3.77302551 191.6812439 C-10.8758251 191.623143 -17.07309332 190.47544138 -23.82519531 188.2746582 C-23.82519531 187.6146582 -23.82519531 186.9546582 -23.82519531 186.2746582 C-24.54707031 186.2127832 -25.26894531 186.1509082 -26.01269531 186.0871582 C-29.74036436 185.01027603 -31.23223359 183.1269161 -33.82519531 180.2746582 C-35.21738281 178.9443457 -35.21738281 178.9443457 -36.63769531 177.5871582 C-38.82519531 175.2746582 -38.82519531 175.2746582 -38.82519531 173.2746582 C-39.48519531 173.2746582 -40.14519531 173.2746582 -40.82519531 173.2746582 C-46.06438212 163.6694824 -47.12458983 155.17013659 -47.08398438 144.28833008 C-47.08748901 143.12129044 -47.09099365 141.95425079 -47.09460449 140.75184631 C-47.10336666 136.91563877 -47.09759204 133.07961745 -47.09082031 129.2434082 C-47.09216854 126.56497979 -47.09410769 123.88655691 -47.09661865 121.20812988 C-47.10024711 115.6031698 -47.09548872 109.99826259 -47.0859375 104.39331055 C-47.07505509 97.93297128 -47.07858146 91.4727583 -47.08959031 85.01242208 C-47.09869522 79.44440688 -47.09993286 73.87642947 -47.09471297 68.30840921 C-47.09161082 64.9921977 -47.09193213 61.67605782 -47.09778595 58.35984802 C-47.10288403 54.66014152 -47.0950946 50.96067503 -47.08398438 47.26098633 C-47.09005707 45.63357262 -47.09005707 45.63357262 -47.09625244 43.97328186 C-47.04255547 34.28553275 -45.46039 26.77251512 -40.82519531 18.2746582 C-40.16519531 18.2746582 -39.50519531 18.2746582 -38.82519531 18.2746582 C-38.63957031 17.5527832 -38.45394531 16.8309082 -38.26269531 16.0871582 C-36.51598516 12.66968182 -34.55953188 11.41486886 -31.38378906 9.38793945 C-29.66469737 8.34356875 -29.66469737 8.34356875 -28.82519531 6.2746582 C-27.17759151 5.56218088 -25.50756002 4.90065437 -23.82519531 4.2746582 C-23.22707031 3.9446582 -22.62894531 3.6146582 -22.01269531 3.2746582 C-14.86001435 0.00486119 -7.71805813 -0.01764201 0 0 Z " fill="#FEFEFE" transform="translate(48.8251953125,1.725341796875)"/>
<path d="M0 0 C0.84175781 -0.00128906 1.68351562 -0.00257812 2.55078125 -0.00390625 C3.43121094 -0.00003906 4.31164062 0.00382812 5.21875 0.0078125 C6.09917969 0.00394531 6.97960937 0.00007813 7.88671875 -0.00390625 C9.14935547 -0.00197266 9.14935547 -0.00197266 10.4375 0 C11.21029297 0.00112793 11.98308594 0.00225586 12.77929688 0.00341797 C14.71875 0.1328125 14.71875 0.1328125 16.71875 1.1328125 C16.71875 1.7928125 16.71875 2.4528125 16.71875 3.1328125 C19.74682483 4.81507629 22.22675621 6.1328125 25.71875 6.1328125 C26.78485337 5.18031031 27.82231476 4.1955659 28.84375 3.1953125 C34.42854169 -1.31507165 41.17648642 -1.0347875 48.05078125 -0.65625 C54.98197563 0.16739646 59.3073505 3.79671579 63.71875 9.1328125 C68.41387974 16.10081186 68.30223054 22.89366482 67.71875 31.1328125 C67.00103198 33.79396179 66.04916513 35.6766615 64.71875 38.1328125 C64.4196875 38.92042969 64.120625 39.70804688 63.8125 40.51953125 C58.29983458 53.69086399 46.73391784 62.27576838 35.32519531 70.0390625 C33.93516272 70.98546767 32.55633525 71.94829115 31.1796875 72.9140625 C26.29016497 76.21036982 26.29016497 76.21036982 23.76171875 75.8671875 C21.63655084 75.10326481 19.66749983 74.22225124 17.65625 73.1953125 C16.64884766 72.68677734 16.64884766 72.68677734 15.62109375 72.16796875 C13.71875 71.1328125 13.71875 71.1328125 10.71875 69.1328125 C10.71875 68.4728125 10.71875 67.8128125 10.71875 67.1328125 C9.63207031 66.76542969 9.63207031 66.76542969 8.5234375 66.390625 C3.41041866 64.09759984 -0.28888774 59.98707418 -4.28125 56.1328125 C-4.91546875 55.54757813 -5.5496875 54.96234375 -6.203125 54.359375 C-13.93522079 46.52087422 -19.66315643 34.69971782 -20.15625 23.6953125 C-19.59609719 15.13578445 -15.85474164 9.17793716 -9.53125 3.5703125 C-6.25367203 0.96449037 -4.21240096 0.00614821 0 0 Z " fill="#FF486C" transform="translate(94.28125,35.8671875)"/>
<path d="M0 0 C1.74311211 -0.0076664 1.74311211 -0.0076664 3.5214386 -0.01548767 C7.34865525 -0.02934439 11.17569098 -0.02842952 15.00292969 -0.02612305 C16.99943887 -0.02902863 18.99594813 -0.03193948 20.9924562 -0.03552979 C27.26696174 -0.04659879 33.54140741 -0.04707787 39.81591797 -0.04101562 C46.25974587 -0.03498481 52.70335493 -0.04727 59.14714551 -0.06858569 C64.7041503 -0.0862829 70.26108597 -0.09219013 75.81811786 -0.08894795 C79.12610108 -0.08714698 82.43389512 -0.09099196 85.74185944 -0.10366249 C89.43875164 -0.1160834 93.13514621 -0.10920041 96.83203125 -0.09765625 C97.90775894 -0.10529999 98.98348663 -0.11294373 100.09181213 -0.12081909 C107.48587485 -0.07012323 114.08614275 1.19387551 121.17480469 3.2746582 C121.17480469 3.9346582 121.17480469 4.5946582 121.17480469 5.2746582 C121.89667969 5.3365332 122.61855469 5.3984082 123.36230469 5.4621582 C127.08997374 6.53904037 128.58184297 8.42240031 131.17480469 11.2746582 C132.56699219 12.6049707 132.56699219 12.6049707 133.98730469 13.9621582 C136.17480469 16.2746582 136.17480469 16.2746582 136.17480469 18.2746582 C136.83480469 18.2746582 137.49480469 18.2746582 138.17480469 18.2746582 C138.50480469 19.9246582 138.83480469 21.5746582 139.17480469 23.2746582 C139.83480469 23.2746582 140.49480469 23.2746582 141.17480469 23.2746582 C143.75559033 31.19262489 144.60909633 38.33872399 144.56298828 46.63989258 C144.57087372 48.41533195 144.57087372 48.41533195 144.57891846 50.22663879 C144.59203396 54.1073661 144.58341001 57.98767732 144.57324219 61.8684082 C144.57391199 64.58402839 144.57817498 67.29964138 144.5819397 70.01525879 C144.58737734 75.69405557 144.5802583 81.37273479 144.56591797 87.05151367 C144.54959521 93.59029675 144.55488515 100.12879907 144.57139719 106.66757536 C144.5850692 112.31040944 144.58690397 117.95315965 144.57908118 123.59600496 C144.57443583 126.95366145 144.57489329 130.31108189 144.58369064 133.66874695 C144.59135502 137.41582912 144.5796304 141.1623809 144.56298828 144.90942383 C144.56906097 146.00273514 144.57513367 147.09604645 144.58139038 148.2224884 C144.52328949 155.325288 143.37558786 161.52255621 141.17480469 168.2746582 C140.51480469 168.2746582 139.85480469 168.2746582 139.17480469 168.2746582 C138.84480469 169.9246582 138.51480469 171.5746582 138.17480469 173.2746582 C137.51480469 173.2746582 136.85480469 173.2746582 136.17480469 173.2746582 C135.96855469 173.9965332 135.76230469 174.7184082 135.54980469 175.4621582 C133.69951481 179.24684204 131.57240031 180.79724473 128.17480469 183.2746582 C127.51480469 183.2746582 126.85480469 183.2746582 126.17480469 183.2746582 C126.17480469 183.9346582 126.17480469 184.5946582 126.17480469 185.2746582 C124.52480469 185.6046582 122.87480469 185.9346582 121.17480469 186.2746582 C121.17480469 186.9346582 121.17480469 187.5946582 121.17480469 188.2746582 C113.256838 190.85544384 106.1107389 191.70894984 97.80957031 191.6628418 C96.03413094 191.67072723 96.03413094 191.67072723 94.2228241 191.67877197 C90.34209679 191.69188748 86.46178558 191.68326353 82.58105469 191.6730957 C79.8654345 191.6737655 77.14982151 191.6780285 74.4342041 191.68179321 C68.75540732 191.68723086 63.0767281 191.68011182 57.39794922 191.66577148 C50.85916614 191.64944873 44.32066382 191.65473866 37.78188753 191.6712507 C32.13905345 191.68492272 26.49630324 191.68675748 20.85345793 191.67893469 C17.49580144 191.67428934 14.138381 191.67474681 10.78071594 191.68354416 C7.03363377 191.69120853 3.28708199 191.67948391 -0.45996094 191.6628418 C-2.0999279 191.67195084 -2.0999279 191.67195084 -3.77302551 191.6812439 C-10.8758251 191.623143 -17.07309332 190.47544138 -23.82519531 188.2746582 C-23.82519531 187.6146582 -23.82519531 186.9546582 -23.82519531 186.2746582 C-24.54707031 186.2127832 -25.26894531 186.1509082 -26.01269531 186.0871582 C-29.74036436 185.01027603 -31.23223359 183.1269161 -33.82519531 180.2746582 C-35.21738281 178.9443457 -35.21738281 178.9443457 -36.63769531 177.5871582 C-38.82519531 175.2746582 -38.82519531 175.2746582 -38.82519531 173.2746582 C-39.48519531 173.2746582 -40.14519531 173.2746582 -40.82519531 173.2746582 C-46.06438212 163.6694824 -47.12458983 155.17013659 -47.08398438 144.28833008 C-47.08748901 143.12129044 -47.09099365 141.95425079 -47.09460449 140.75184631 C-47.10336666 136.91563877 -47.09759204 133.07961745 -47.09082031 129.2434082 C-47.09216854 126.56497979 -47.09410769 123.88655691 -47.09661865 121.20812988 C-47.10024711 115.6031698 -47.09548872 109.99826259 -47.0859375 104.39331055 C-47.07505509 97.93297128 -47.07858146 91.4727583 -47.08959031 85.01242208 C-47.09869522 79.44440688 -47.09993286 73.87642947 -47.09471297 68.30840921 C-47.09161082 64.9921977 -47.09193213 61.67605782 -47.09778595 58.35984802 C-47.10288403 54.66014152 -47.0950946 50.96067503 -47.08398438 47.26098633 C-47.09005707 45.63357262 -47.09005707 45.63357262 -47.09625244 43.97328186 C-47.04255547 34.28553275 -45.46039 26.77251512 -40.82519531 18.2746582 C-40.16519531 18.2746582 -39.50519531 18.2746582 -38.82519531 18.2746582 C-38.63957031 17.5527832 -38.45394531 16.8309082 -38.26269531 16.0871582 C-36.51598516 12.66968182 -34.55953188 11.41486886 -31.38378906 9.38793945 C-29.66469737 8.34356875 -29.66469737 8.34356875 -28.82519531 6.2746582 C-27.17759151 5.56218088 -25.50756002 4.90065437 -23.82519531 4.2746582 C-23.22707031 3.9446582 -22.62894531 3.6146582 -22.01269531 3.2746582 C-14.86001435 0.00486119 -7.71805813 -0.01764201 0 0 Z M-14.82519531 4.2746582 C-14.82519531 4.9346582 -14.82519531 5.5946582 -14.82519531 6.2746582 C-15.75332031 6.2746582 -16.68144531 6.2746582 -17.63769531 6.2746582 C-24.4587622 7.22125524 -30.64233246 12.76998787 -35.02441406 17.7980957 C-42.64732116 28.28165991 -43.97645472 40.05128772 -43.97045898 52.68530273 C-43.9738176 53.70907516 -43.97717621 54.7328476 -43.9806366 55.78764343 C-43.99010862 59.16093166 -43.99208804 62.53417002 -43.99316406 65.9074707 C-43.99638 68.26528951 -43.99974432 70.62310812 -44.00325012 72.98092651 C-44.00923256 77.92194074 -44.011091 82.86293749 -44.01049805 87.80395508 C-44.01039665 94.10816089 -44.02402979 100.41225352 -44.04127026 106.71643257 C-44.05243916 111.58774318 -44.05441573 116.45902688 -44.05388832 121.33034897 C-44.0550618 123.65295679 -44.05944777 125.97556545 -44.06722069 128.29816055 C-44.59723339 154.91426931 -44.59723339 154.91426931 -31.38769531 177.1496582 C-17.25914687 190.41414666 1.61423736 188.71745673 19.84277344 188.63793945 C22.213974 188.63741961 24.58517499 188.63794209 26.95637512 188.63945007 C31.90091472 188.63936086 36.84528955 188.62903371 41.78979492 188.61083984 C48.10061863 188.58811741 54.41120298 188.58762102 60.72205639 188.59435749 C65.60962521 188.5977114 70.49714028 188.59104124 75.38469887 188.58122826 C77.71091747 188.57740331 80.03714207 188.5762167 82.36336327 188.5778141 C101.31213404 189.37153551 101.31213404 189.37153551 119.17480469 184.2746582 C119.17480469 183.6146582 119.17480469 182.9546582 119.17480469 182.2746582 C119.85542969 182.2334082 120.53605469 182.1921582 121.23730469 182.1496582 C128.9079808 179.86477596 133.34545387 172.89745643 137.17480469 166.2746582 C141.58708655 157.75438978 141.3244538 148.80361582 141.32006836 139.40576172 C141.32342697 138.35737122 141.32678558 137.30898071 141.33024597 136.2288208 C141.33969121 132.78705641 141.34169566 129.34534097 141.34277344 125.90356445 C141.34598983 123.49657675 141.34935419 121.08958923 141.3528595 118.68260193 C141.35883421 113.64679511 141.36070104 108.61100542 141.36010742 103.57519531 C141.36000575 97.13847418 141.37367119 90.70186321 141.39087963 84.26516819 C141.40202299 79.29704793 141.40402593 74.32895415 141.4034977 69.36082268 C141.40467377 66.98828692 141.40907455 64.61575038 141.41683006 62.24322701 C141.42667972 58.91972341 141.42373252 55.59645702 141.41772461 52.27294922 C141.42334412 51.30381088 141.42896362 50.33467255 141.43475342 49.33616638 C141.37119852 35.42840147 138.13531726 24.23517077 128.17480469 14.2746582 C117.21680766 3.80368326 105.8061951 3.11447945 91.37597656 3.14526367 C89.83243248 3.14263519 89.83243248 3.14263519 88.25770569 3.13995361 C84.88630441 3.13558442 81.51495642 3.13845563 78.14355469 3.1418457 C75.78283681 3.14117125 73.42211901 3.14020004 71.06140137 3.13894653 C66.12572566 3.13747624 61.19006812 3.13960261 56.25439453 3.14428711 C49.9466482 3.14998397 43.63894442 3.14670139 37.33119965 3.14071465 C32.46001875 3.13709099 27.58884784 3.13825591 22.71766663 3.14084244 C20.39258316 3.14150671 18.06749877 3.14070084 15.74241638 3.13836288 C12.48613095 3.13580667 9.22991324 3.1397186 5.97363281 3.14526367 C5.024767 3.14323944 4.07590118 3.14121521 3.09828186 3.13912964 C-2.93119301 3.15802902 -8.83776763 3.56524635 -14.82519531 4.2746582 Z " fill="#E4E4E4" transform="translate(48.8251953125,1.725341796875)"/>
<path d="M0 0 C0.86689453 0.00515625 1.73378906 0.0103125 2.62695312 0.015625 C9.00251895 0.09500948 9.00251895 0.09500948 11.3125 1.25 C11.3125 1.91 11.3125 2.57 11.3125 3.25 C14.34057483 4.93226379 16.82050621 6.25 20.3125 6.25 C21.37860337 5.29749781 22.41606476 4.3127534 23.4375 3.3125 C29.02229169 -1.19788415 35.77023642 -0.9176 42.64453125 -0.5390625 C49.57572563 0.28458396 53.9011005 3.91390329 58.3125 9.25 C61.96309508 14.66781497 62.43985152 18.51484769 62.375 25 C62.36597656 26.17046875 62.35695313 27.3409375 62.34765625 28.546875 C62.33605469 29.43890625 62.32445312 30.3309375 62.3125 31.25 C61.6525 31.58 60.9925 31.91 60.3125 32.25 C59.48150921 29.65315378 59.33117741 27.7643874 59.4375 25 C59.30746748 21.09902434 58.49215485 18.57327511 56.96875 15.046875 C56.3125 13.25 56.3125 13.25 56.3125 10.25 C55.755625 9.981875 55.19875 9.71375 54.625 9.4375 C47.60340909 5.83181818 47.60340909 5.83181818 46.3125 3.25 C40.7025 3.25 35.0925 3.25 29.3125 3.25 C29.3125 3.91 29.3125 4.57 29.3125 5.25 C18.7525 9.73 18.7525 9.73 14.3125 8.25 C14.3125 7.59 14.3125 6.93 14.3125 6.25 C12.9925 6.25 11.6725 6.25 10.3125 6.25 C9.9825 5.59 9.6525 4.93 9.3125 4.25 C3.48374801 2.428515 -2.70701828 2.58983943 -8.4375 4.5 C-12.84869774 6.87526032 -15.89950098 9.06800148 -18.6875 13.25 C-18.6875 12.59 -18.6875 11.93 -18.6875 11.25 C-19.3475 10.92 -20.0075 10.59 -20.6875 10.25 C-19.80112622 9.13822533 -18.9028535 8.03593386 -18 6.9375 C-17.50113281 6.32261719 -17.00226563 5.70773438 -16.48828125 5.07421875 C-11.37702708 -0.10355933 -6.92577966 -0.16701202 0 0 Z " fill="#FF5AA5" transform="translate(99.6875,35.75)"/>
<path d="M0 0 C0.66 0 1.32 0 2 0 C-2.56063325 12.92179422 -13.53210168 20.51535641 -24.39355469 27.90625 C-25.78358728 28.85265517 -27.16241475 29.81547865 -28.5390625 30.78125 C-33.42858503 34.07755732 -33.42858503 34.07755732 -35.95703125 33.734375 C-38.08219916 32.97045231 -40.05125017 32.08943874 -42.0625 31.0625 C-42.73410156 30.72347656 -43.40570313 30.38445312 -44.09765625 30.03515625 C-46 29 -46 29 -49 27 C-49 26.34 -49 25.68 -49 25 C-49.763125 24.773125 -50.52625 24.54625 -51.3125 24.3125 C-54.54736301 22.73268318 -55.41641358 21.16717283 -57 18 C-54.5625 18.375 -54.5625 18.375 -52 19 C-51.67 19.66 -51.34 20.32 -51 21 C-50.01 21.33 -49.02 21.66 -48 22 C-47.67 22.66 -47.34 23.32 -47 24 C-45.06788009 25.35571626 -45.06788009 25.35571626 -42.75 26.625 C-41.98171875 27.07101563 -41.2134375 27.51703125 -40.421875 27.9765625 C-37.70965556 29.12269394 -35.91588367 29.2848297 -33 29 C-30.44496043 27.71711243 -30.44496043 27.71711243 -28 26 C-23.22222222 23 -23.22222222 23 -21 23 C-21 22.34 -21 21.68 -21 21 C-19.68 20.67 -18.36 20.34 -17 20 C-17 19.34 -17 18.68 -17 18 C-16.01 18 -15.02 18 -14 18 C-14 17.01 -14 16.02 -14 15 C-13.01 14.34 -12.02 13.68 -11 13 C-6.51345954 9.96855374 -4.10986587 6.37233994 -1.33203125 1.828125 C-0.89246094 1.22484375 -0.45289063 0.6215625 0 0 Z " fill="#FF221D" transform="translate(154,78)"/>
<path d="M0 0 C5.46792092 2.43018708 9.30759491 5.61518981 12 11 C13.18658271 14.58396411 13.10003201 17.99679904 13.0625 21.75 C13.05347656 22.92046875 13.04445312 24.0909375 13.03515625 25.296875 C13.02355469 26.18890625 13.01195312 27.0809375 13 28 C12.34 28.33 11.68 28.66 11 29 C10.16900921 26.40315378 10.01867741 24.5143874 10.125 21.75 C9.99496748 17.84902434 9.17965485 15.32327511 7.65625 11.796875 C7 10 7 10 7 7 C6.4225 6.7525 5.845 6.505 5.25 6.25 C2.6997003 4.83316683 0.98214299 3.12372463 -1 1 C-0.67 0.67 -0.34 0.34 0 0 Z " fill="#FF639E" transform="translate(149,39)"/>
<path d="M0 0 C1.3003418 -0.00483398 1.3003418 -0.00483398 2.62695312 -0.00976562 C9.04517636 0.04517636 9.04517636 0.04517636 11.3125 2.3125 C10.3225 2.26609375 9.3325 2.2196875 8.3125 2.171875 C0.87337597 1.92698107 -5.4299429 1.7742222 -11.6875 6.3125 C-13.110625 7.3334375 -13.110625 7.3334375 -14.5625 8.375 C-16.86570056 10.31859072 -16.86570056 10.31859072 -18.6875 13.3125 C-18.6875 12.6525 -18.6875 11.9925 -18.6875 11.3125 C-19.3475 10.9825 -20.0075 10.6525 -20.6875 10.3125 C-19.80112622 9.20072533 -18.9028535 8.09843386 -18 7 C-17.50113281 6.38511719 -17.00226563 5.77023438 -16.48828125 5.13671875 C-11.39218871 -0.02570037 -6.91119238 -0.13020332 0 0 Z " fill="#FF6AAF" transform="translate(99.6875,35.6875)"/>
<path d="M0 0 C0.33 0.99 0.66 1.98 1 3 C1.66 3 2.32 3 3 3 C3.33 4.98 3.66 6.96 4 9 C4.66 9 5.32 9 6 9 C6.391875 9.86625 6.78375 10.7325 7.1875 11.625 C9.3396405 15.63243403 11.809062 19.904531 16 22 C16 22.66 16 23.32 16 24 C16.99 24.33 17.98 24.66 19 25 C18.34 25.33 17.68 25.66 17 26 C9.13408545 22.62889376 4.52529885 14.71434081 0.84765625 7.39453125 C-0.07744827 4.78121755 -0.16127534 2.751455 0 0 Z " fill="#FF262C" transform="translate(78,69)"/>
<path d="M0 0 C0.66 0 1.32 0 2 0 C-0.81439358 7.97411515 -6.01013594 13.27182903 -12 19 C-12.66 17.68 -13.32 16.36 -14 15 C-13.01 14.34 -12.02 13.68 -11 13 C-6.51345954 9.96855374 -4.10986587 6.37233994 -1.33203125 1.828125 C-0.89246094 1.22484375 -0.45289063 0.6215625 0 0 Z " fill="#FF2529" transform="translate(154,78)"/>
<path d="M0 0 C3.10398978 -0.08710289 6.20766548 -0.14042309 9.3125 -0.1875 C10.19357422 -0.21263672 11.07464844 -0.23777344 11.98242188 -0.26367188 C13.25375977 -0.27817383 13.25375977 -0.27817383 14.55078125 -0.29296875 C15.72120972 -0.31653442 15.72120972 -0.31653442 16.9152832 -0.34057617 C19.49903853 0.08152696 20.36292167 1.01489942 22 3 C20.02 3.99 20.02 3.99 18 5 C18 4.34 18 3.68 18 3 C16.68 3 15.36 3 14 3 C14 2.34 14 1.68 14 1 C9.38 1 4.76 1 0 1 C0 0.67 0 0.34 0 0 Z " fill="#FF72B4" transform="translate(128,36)"/>
<path d="M0 0 C0.33 0.99 0.66 1.98 1 3 C1.66 3 2.32 3 3 3 C3.33 4.98 3.66 6.96 4 9 C4.66 9 5.32 9 6 9 C6.66 10.98 7.32 12.96 8 15 C7.01 15 6.02 15 5 15 C4.15415002 13.44424022 3.32381601 11.8800388 2.5 10.3125 C2.0359375 9.44238281 1.571875 8.57226562 1.09375 7.67578125 C-0.04818792 4.88211171 -0.21504208 2.98370887 0 0 Z " fill="#FF304A" transform="translate(78,69)"/>
<path d="M0 0 C0.33 0.99 0.66 1.98 1 3 C1.66 3 2.32 3 3 3 C3 7.29 3 11.58 3 16 C2.34 16.33 1.68 16.66 1 17 C-0.13480527 13.39006828 -0.10015767 10.0157673 -0.0625 6.25 C-0.05347656 5.07953125 -0.04445312 3.9090625 -0.03515625 2.703125 C-0.02355469 1.81109375 -0.01195312 0.9190625 0 0 Z " fill="#FF5788" transform="translate(159,51)"/>
<path d="M0 0 C13.77238507 -0.49879865 13.77238507 -0.49879865 18.9375 3.5 C20 5 20 5 20 7 C19.34 7 18.68 7 18 7 C18 6.34 18 5.68 18 5 C16.68 5 15.36 5 14 5 C13.67 4.34 13.34 3.68 13 3 C9.9600352 2.30662208 9.9600352 2.30662208 6.4375 1.875 C4.64119141 1.62363281 4.64119141 1.62363281 2.80859375 1.3671875 C1.88175781 1.24601562 0.95492187 1.12484375 0 1 C0 0.67 0 0.34 0 0 Z " fill="#FF4A9D" transform="translate(96,37)"/>
<path d="M0 0 C2.49361571 1.20381448 4.68143083 2.45428722 7 4 C7 4.99 7 5.98 7 7 C3.63408134 5.55746343 1.48952921 3.66735273 -1 1 C-0.67 0.67 -0.34 0.34 0 0 Z " fill="#FF4E9C" transform="translate(149,39)"/>
<path d="M0 0 C0.66 0 1.32 0 2 0 C1.375 7.625 1.375 7.625 -2 11 C-1.34 7.37 -0.68 3.74 0 0 Z " fill="#FF3055" transform="translate(158,66)"/>
<path d="M0 0 C0.66 0.33 1.32 0.66 2 1 C1.319375 1.556875 1.319375 1.556875 0.625 2.125 C-1.47029394 4.54264685 -2.12013285 6.95430602 -3 10 C-3.33 9.34 -3.66 8.68 -4 8 C-4.66 7.67 -5.32 7.34 -6 7 C-4.02 4.69 -2.04 2.38 0 0 Z " fill="#FF66A7" transform="translate(85,39)"/>
<path d="M0 0 C1.125 1.5625 1.125 1.5625 2 4 C1.125 7.75 1.125 7.75 0 11 C-0.33 11 -0.66 11 -1 11 C-1.0270043 9.54176788 -1.04639787 8.08339325 -1.0625 6.625 C-1.07410156 5.81289063 -1.08570312 5.00078125 -1.09765625 4.1640625 C-1 2 -1 2 0 0 Z " fill="#FF3B76" transform="translate(77,53)"/>
<path d="M0 0 C0.66 0 1.32 0 2 0 C0.7508258 3.45925163 -0.67527795 6.14693203 -3 9 C-3.33 8.01 -3.66 7.02 -4 6 C-2.1875 2.8125 -2.1875 2.8125 0 0 Z " fill="#FF2B3D" transform="translate(154,78)"/>
</svg>
