<?xml version="1.0" encoding="UTF-8"?>
<svg version="1.1" xmlns="http://www.w3.org/2000/svg" width="512" height="512">
<path d="M0 0 C0.923517 -0.00694553 1.847034 -0.01389106 2.79853636 -0.02104706 C5.87070765 -0.03923744 8.94209974 -0.02907488 12.01429749 -0.01878357 C14.22597834 -0.02584604 16.43765436 -0.03459244 18.64932251 -0.04489136 C24.64108492 -0.06735779 30.63258284 -0.06445195 36.62437129 -0.05556989 C41.63183489 -0.05045321 46.63924909 -0.05775809 51.64670759 -0.06504196 C64.13690829 -0.08300273 76.62698191 -0.07663921 89.11716891 -0.05887216 C99.94784383 -0.04417784 110.77824126 -0.05880377 121.60888045 -0.08764232 C132.7488946 -0.11708214 143.88880865 -0.12748785 155.02886683 -0.11846012 C161.27555043 -0.11353599 167.5220184 -0.11571913 173.76867485 -0.13624763 C179.64329868 -0.1546301 185.51740769 -0.14861401 191.39200401 -0.12404823 C193.54379775 -0.11904868 195.6956309 -0.12250776 197.84739304 -0.13519669 C220.09300709 -0.25596807 220.09300709 -0.25596807 228.51751614 7.4457922 C236.59757263 15.4980512 236.78851206 25.11182461 236.81105894 35.87413013 C236.80526455 37.67942893 236.79918357 39.48472683 236.79284668 41.2900238 C236.79702164 43.2203614 236.80250005 45.15069655 236.80916649 47.08102715 C236.82361847 52.37544182 236.81937709 57.66970078 236.81199968 62.96412396 C236.80726972 68.67794585 236.81977635 74.39173397 236.83001709 80.10554504 C236.84721381 91.29552546 236.84804327 102.48544974 236.84280419 113.67543994 C236.83876286 122.77077053 236.8402056 131.86608454 236.84555244 140.96141434 C236.84630087 142.25588804 236.84704929 143.55036174 236.84782039 144.88406191 C236.84935187 147.51378106 236.85089021 150.14350022 236.85243536 152.77321936 C236.86226415 170.42974189 236.86642783 188.08625672 236.85880947 205.74278069 C236.8585123 206.43298774 236.85821512 207.1231948 236.85790895 207.83431722 C236.85546009 213.43902073 236.85284847 219.04372418 236.85022481 224.64842761 C236.84012321 246.50832846 236.84847706 268.36815247 236.87171936 290.2280426 C236.8978011 314.79814037 236.91058792 339.3681876 236.90353161 363.93830025 C236.90003785 376.94390061 236.90228186 389.94943788 236.91978264 402.95502853 C236.93449598 414.02646543 236.93515133 425.09779484 236.91771173 436.16922961 C236.90919228 441.81716541 236.90707546 447.46490909 236.92236328 453.11283493 C236.93619186 458.28572619 236.93147048 463.45826043 236.91212405 468.63113095 C236.90835815 470.49981947 236.91130297 472.36853646 236.9217357 474.23719965 C237.03875481 496.80670658 237.03875481 496.80670658 229.21766663 505.4521637 C222.59741786 511.33964663 215.48013058 513.11374698 206.81033325 513.02932739 C205.88681625 513.03627292 204.96329925 513.04321845 204.01179689 513.05037445 C200.93962561 513.06856484 197.86823351 513.05840227 194.79603577 513.04811096 C192.58435491 513.05517344 190.37267889 513.06391983 188.16101074 513.07421875 C182.16924833 513.09668518 176.17775041 513.09377934 170.18596196 513.08489728 C165.17849836 513.0797806 160.17108417 513.08708548 155.16362566 513.09436935 C142.67342496 513.11233013 130.18335134 513.1059666 117.69316434 513.08819955 C106.86248942 513.07350523 96.03209199 513.08813116 85.2014528 513.11696971 C74.06143866 513.14640953 62.9215246 513.15681524 51.78146642 513.14778751 C45.53478282 513.14286338 39.28831486 513.14504652 33.0416584 513.16557503 C27.16703457 513.18395749 21.29292556 513.1779414 15.41832924 513.15337563 C13.2665355 513.14837607 11.11470235 513.15183516 8.96294022 513.16452408 C-13.28267384 513.28529546 -13.28267384 513.28529546 -21.70718288 505.58353519 C-29.78723937 497.5312762 -29.97817881 487.91750278 -30.00072569 477.15519726 C-29.9949313 475.34989846 -29.98885032 473.54460057 -29.98251343 471.73930359 C-29.98668839 469.80896599 -29.9921668 467.87863085 -29.99883324 465.94830024 C-30.01328522 460.65388557 -30.00904384 455.35962661 -30.00166643 450.06520343 C-29.99693647 444.35138154 -30.0094431 438.63759342 -30.01968384 432.92378235 C-30.03688056 421.73380193 -30.03771002 410.54387765 -30.03247093 399.35388745 C-30.02842961 390.25855686 -30.02987235 381.16324286 -30.03521919 372.06791306 C-30.03596761 370.77343936 -30.03671604 369.47896566 -30.03748714 368.14526548 C-30.03901861 365.51554633 -30.04055696 362.88582718 -30.04210211 360.25610803 C-30.0519309 342.5995855 -30.05609458 324.94307067 -30.04847622 307.28654671 C-30.04817905 306.59633965 -30.04788187 305.9061326 -30.04757569 305.19501018 C-30.04512684 299.59030666 -30.04251521 293.98560322 -30.03989156 288.38089978 C-30.02978996 266.52099894 -30.03814381 244.66117492 -30.06138611 222.80128479 C-30.08746785 198.23118702 -30.10025467 173.66113979 -30.09319836 149.09102714 C-30.0897046 136.08542679 -30.0919486 123.07988951 -30.10944939 110.07429886 C-30.12416273 99.00286196 -30.12481808 87.93153255 -30.10737848 76.86009778 C-30.09885902 71.21216199 -30.09674221 65.5644183 -30.11203003 59.91649246 C-30.12585861 54.7436012 -30.12113722 49.57106696 -30.10179079 44.39819644 C-30.09802489 42.52950793 -30.10096972 40.66079093 -30.11140244 38.79212774 C-30.22842156 16.22262082 -30.22842156 16.22262082 -22.40733337 7.5771637 C-15.78708461 1.68968076 -8.66979733 -0.08441959 0 0 Z " fill="#63AEDA" transform="translate(152.59483337402344,-0.5146636962890625)"/>
<path d="M0 0 C0.923517 -0.00694553 1.847034 -0.01389106 2.79853636 -0.02104706 C5.87070765 -0.03923744 8.94209974 -0.02907488 12.01429749 -0.01878357 C14.22597834 -0.02584604 16.43765436 -0.03459244 18.64932251 -0.04489136 C24.64108492 -0.06735779 30.63258284 -0.06445195 36.62437129 -0.05556989 C41.63183489 -0.05045321 46.63924909 -0.05775809 51.64670759 -0.06504196 C64.13690829 -0.08300273 76.62698191 -0.07663921 89.11716891 -0.05887216 C99.94784383 -0.04417784 110.77824126 -0.05880377 121.60888045 -0.08764232 C132.7488946 -0.11708214 143.88880865 -0.12748785 155.02886683 -0.11846012 C161.27555043 -0.11353599 167.5220184 -0.11571913 173.76867485 -0.13624763 C179.64329868 -0.1546301 185.51740769 -0.14861401 191.39200401 -0.12404823 C193.54379775 -0.11904868 195.6956309 -0.12250776 197.84739304 -0.13519669 C220.09300709 -0.25596807 220.09300709 -0.25596807 228.51751614 7.4457922 C236.59757263 15.4980512 236.78851206 25.11182461 236.81105894 35.87413013 C236.80526455 37.67942893 236.79918357 39.48472683 236.79284668 41.2900238 C236.79702164 43.2203614 236.80250005 45.15069655 236.80916649 47.08102715 C236.82361847 52.37544182 236.81937709 57.66970078 236.81199968 62.96412396 C236.80726972 68.67794585 236.81977635 74.39173397 236.83001709 80.10554504 C236.84721381 91.29552546 236.84804327 102.48544974 236.84280419 113.67543994 C236.83876286 122.77077053 236.8402056 131.86608454 236.84555244 140.96141434 C236.84630087 142.25588804 236.84704929 143.55036174 236.84782039 144.88406191 C236.84935187 147.51378106 236.85089021 150.14350022 236.85243536 152.77321936 C236.86226415 170.42974189 236.86642783 188.08625672 236.85880947 205.74278069 C236.8585123 206.43298774 236.85821512 207.1231948 236.85790895 207.83431722 C236.85546009 213.43902073 236.85284847 219.04372418 236.85022481 224.64842761 C236.84012321 246.50832846 236.84847706 268.36815247 236.87171936 290.2280426 C236.8978011 314.79814037 236.91058792 339.3681876 236.90353161 363.93830025 C236.90003785 376.94390061 236.90228186 389.94943788 236.91978264 402.95502853 C236.93449598 414.02646543 236.93515133 425.09779484 236.91771173 436.16922961 C236.90919228 441.81716541 236.90707546 447.46490909 236.92236328 453.11283493 C236.93619186 458.28572619 236.93147048 463.45826043 236.91212405 468.63113095 C236.90835815 470.49981947 236.91130297 472.36853646 236.9217357 474.23719965 C237.03875481 496.80670658 237.03875481 496.80670658 229.21766663 505.4521637 C222.59741786 511.33964663 215.48013058 513.11374698 206.81033325 513.02932739 C205.88681625 513.03627292 204.96329925 513.04321845 204.01179689 513.05037445 C200.93962561 513.06856484 197.86823351 513.05840227 194.79603577 513.04811096 C192.58435491 513.05517344 190.37267889 513.06391983 188.16101074 513.07421875 C182.16924833 513.09668518 176.17775041 513.09377934 170.18596196 513.08489728 C165.17849836 513.0797806 160.17108417 513.08708548 155.16362566 513.09436935 C142.67342496 513.11233013 130.18335134 513.1059666 117.69316434 513.08819955 C106.86248942 513.07350523 96.03209199 513.08813116 85.2014528 513.11696971 C74.06143866 513.14640953 62.9215246 513.15681524 51.78146642 513.14778751 C45.53478282 513.14286338 39.28831486 513.14504652 33.0416584 513.16557503 C27.16703457 513.18395749 21.29292556 513.1779414 15.41832924 513.15337563 C13.2665355 513.14837607 11.11470235 513.15183516 8.96294022 513.16452408 C-13.28267384 513.28529546 -13.28267384 513.28529546 -21.70718288 505.58353519 C-29.78723937 497.5312762 -29.97817881 487.91750278 -30.00072569 477.15519726 C-29.9949313 475.34989846 -29.98885032 473.54460057 -29.98251343 471.73930359 C-29.98668839 469.80896599 -29.9921668 467.87863085 -29.99883324 465.94830024 C-30.01328522 460.65388557 -30.00904384 455.35962661 -30.00166643 450.06520343 C-29.99693647 444.35138154 -30.0094431 438.63759342 -30.01968384 432.92378235 C-30.03688056 421.73380193 -30.03771002 410.54387765 -30.03247093 399.35388745 C-30.02842961 390.25855686 -30.02987235 381.16324286 -30.03521919 372.06791306 C-30.03596761 370.77343936 -30.03671604 369.47896566 -30.03748714 368.14526548 C-30.03901861 365.51554633 -30.04055696 362.88582718 -30.04210211 360.25610803 C-30.0519309 342.5995855 -30.05609458 324.94307067 -30.04847622 307.28654671 C-30.04817905 306.59633965 -30.04788187 305.9061326 -30.04757569 305.19501018 C-30.04512684 299.59030666 -30.04251521 293.98560322 -30.03989156 288.38089978 C-30.02978996 266.52099894 -30.03814381 244.66117492 -30.06138611 222.80128479 C-30.08746785 198.23118702 -30.10025467 173.66113979 -30.09319836 149.09102714 C-30.0897046 136.08542679 -30.0919486 123.07988951 -30.10944939 110.07429886 C-30.12416273 99.00286196 -30.12481808 87.93153255 -30.10737848 76.86009778 C-30.09885902 71.21216199 -30.09674221 65.5644183 -30.11203003 59.91649246 C-30.12585861 54.7436012 -30.12113722 49.57106696 -30.10179079 44.39819644 C-30.09802489 42.52950793 -30.10096972 40.66079093 -30.11140244 38.79212774 C-30.22842156 16.22262082 -30.22842156 16.22262082 -22.40733337 7.5771637 C-15.78708461 1.68968076 -8.66979733 -0.08441959 0 0 Z M-11.59483337 71.5146637 C-11.59483337 193.6146637 -11.59483337 315.7146637 -11.59483337 441.5146637 C64.30516663 441.5146637 140.20516663 441.5146637 218.40516663 441.5146637 C218.40516663 319.4146637 218.40516663 197.3146637 218.40516663 71.5146637 C142.50516663 71.5146637 66.60516663 71.5146637 -11.59483337 71.5146637 Z " fill="#6F7384" transform="translate(152.59483337402344,-0.5146636962890625)"/>
<path d="M0 0 C2.96858157 2.20740681 3.82865791 3.48597373 5 7 C10.61 7.33 16.22 7.66 22 8 C22.99 9.98 23.98 11.96 25 14 C26.99557113 16.4282022 26.99557113 16.4282022 30.9375 16.3125 C33.49897159 16.23838871 34.68821439 16.19746422 36.875 14.8125 C38.34127742 12.56753769 38.34127742 12.56753769 40 8 C45.61 8 51.22 8 57 8 C57.99 9.98 58.98 11.96 60 14 C63.7205836 16.48038907 65.59796571 16.46337203 70 16 C73.1920398 13.58440232 74.17236846 11.65526308 76 8 C99.1 8 122.2 8 146 8 C146 42.98 146 77.96 146 114 C70.1 114 -5.8 114 -84 114 C-84 79.02 -84 44.04 -84 8 C-60.57 8 -37.14 8 -13 8 C-12.67 6.35 -12.34 4.7 -12 3 C-8.79605181 -0.7165799 -4.59365197 -0.86779462 0 0 Z " fill="#468CBD" transform="translate(225,327)"/>
<path d="M0 0 C1.2367749 -0.00430527 1.2367749 -0.00430527 2.49853516 -0.00869751 C4.23666066 -0.01073322 5.97480933 -0.0052379 7.71289062 0.00732422 C10.36640879 0.0233855 13.01840395 0.00745941 15.671875 -0.01171875 C17.36458668 -0.00973623 19.05729742 -0.00589237 20.75 0 C21.93456787 -0.00910904 21.93456787 -0.00910904 23.14306641 -0.0184021 C27.72985273 0.0398761 30.80781797 0.43037991 34.375 3.3984375 C37.86063611 7.58767511 37.81362734 11.79702579 37.7734375 17.0234375 C37.77630768 17.8479541 37.77917786 18.6724707 37.78213501 19.52197266 C37.78417072 21.26009816 37.7786754 22.99824683 37.76611328 24.73632812 C37.750052 27.38984629 37.76597809 30.04184145 37.78515625 32.6953125 C37.78317373 34.38802418 37.77932987 36.08073492 37.7734375 37.7734375 C37.78254654 38.95800537 37.78254654 38.95800537 37.7918396 40.16650391 C37.7335614 44.75329023 37.34305759 47.83125547 34.375 51.3984375 C30.18576239 54.88407361 25.97641171 54.83706484 20.75 54.796875 C19.5132251 54.80118027 19.5132251 54.80118027 18.25146484 54.80557251 C16.51333934 54.80760822 14.77519067 54.8021129 13.03710938 54.78955078 C10.38359121 54.7734895 7.73159605 54.78941559 5.078125 54.80859375 C3.38541332 54.80661123 1.69270258 54.80276737 0 54.796875 C-1.18456787 54.80598404 -1.18456787 54.80598404 -2.39306641 54.8152771 C-6.97985273 54.7569989 -10.05781797 54.36649509 -13.625 51.3984375 C-17.11063611 47.20919989 -17.06362734 42.99984921 -17.0234375 37.7734375 C-17.02630768 36.9489209 -17.02917786 36.1244043 -17.03213501 35.27490234 C-17.03417072 33.53677684 -17.0286754 31.79862817 -17.01611328 30.06054688 C-17.000052 27.40702871 -17.01597809 24.75503355 -17.03515625 22.1015625 C-17.03317373 20.40885082 -17.02932987 18.71614008 -17.0234375 17.0234375 C-17.02951019 16.23372559 -17.03558289 15.44401367 -17.0418396 14.63037109 C-16.9835614 10.04358477 -16.59305759 6.96561953 -13.625 3.3984375 C-9.43576239 -0.08719861 -5.22641171 -0.04018984 0 0 Z " fill="#464958" transform="translate(245.625,175.6015625)"/>
<path d="M0 0 C0.82450653 -0.0159874 1.64901306 -0.03197479 2.49850464 -0.04844666 C3.82979904 -0.05649071 3.82979904 -0.05649071 5.18798828 -0.06469727 C6.10411896 -0.07372574 7.02024963 -0.08275421 7.96414185 -0.09205627 C9.90249359 -0.10656437 11.84089436 -0.1154469 13.77929688 -0.11914062 C16.74058848 -0.13103239 19.69979309 -0.18020744 22.66064453 -0.23071289 C24.54474895 -0.24017778 26.42886616 -0.2474125 28.31298828 -0.25219727 C29.19646942 -0.27172958 30.07995056 -0.2912619 30.99020386 -0.31138611 C35.43596844 -0.27886348 37.29709792 -0.14690418 40.91894531 2.65380859 C44.22069332 7.11235844 44.05717315 11.14755889 44.08642578 16.48217773 C44.09212585 17.28495651 44.09782593 18.08773529 44.10369873 18.9148407 C44.11314117 20.61362391 44.11967971 22.31242539 44.12353516 24.01123047 C44.13322582 26.59888024 44.16424936 29.18573045 44.19580078 31.77319336 C44.20233279 33.42618345 44.20758249 35.07917921 44.21142578 36.73217773 C44.22377258 37.50112869 44.23611938 38.27007965 44.24884033 39.06233215 C44.22918378 43.84781192 43.62049555 47.20871854 40.88330078 51.30639648 C38.11392331 53.01744472 35.97767877 53.56396198 32.74487305 53.61279297 C31.53825768 53.63677406 31.53825768 53.63677406 30.30726624 53.66123962 C29.4467717 53.66660233 28.58627716 53.67196503 27.69970703 53.67749023 C26.36092751 53.69103294 26.36092751 53.69103294 24.99510193 53.70484924 C23.10980579 53.71933877 21.22445952 53.72823526 19.33911133 53.73193359 C16.45909874 53.7438415 13.58122148 53.79304769 10.70166016 53.84350586 C8.86768621 53.8529693 7.03369914 53.86020471 5.19970703 53.86499023 C4.34123672 53.88452255 3.48276642 53.90405487 2.59828186 53.92417908 C-1.78712049 53.89117447 -3.56557135 53.73481385 -7.13647461 50.95898438 C-10.46059587 46.50619465 -10.29053809 42.47134256 -10.31982422 37.13061523 C-10.32552429 36.32783646 -10.33122437 35.52505768 -10.33709717 34.69795227 C-10.34653961 32.99916905 -10.35307815 31.30036758 -10.35693359 29.6015625 C-10.36662426 27.01391273 -10.3976478 24.42706252 -10.42919922 21.83959961 C-10.43573123 20.18660952 -10.44098093 18.53361376 -10.44482422 16.88061523 C-10.45717102 16.11166428 -10.46951782 15.34271332 -10.48223877 14.55046082 C-10.46251606 9.74887532 -9.78853523 6.4561945 -7.11669922 2.30639648 C-4.07509539 0.2786606 -3.42660158 0.05033025 0 0 Z " fill="#63AEDA" transform="translate(239.11669921875,361.693603515625)"/>
<path d="M0 0 C1.20416817 -0.00855011 1.20416817 -0.00855011 2.43266296 -0.01727295 C4.13144618 -0.02671539 5.83024765 -0.03325393 7.52905273 -0.03710938 C10.11670251 -0.04680004 12.70355271 -0.07782358 15.29101562 -0.109375 C16.94400572 -0.11590701 18.59700147 -0.12115671 20.25 -0.125 C21.01895096 -0.1373468 21.78790192 -0.1496936 22.58015442 -0.16241455 C27.35165858 -0.1428154 30.77778947 0.40248465 34.82421875 3.203125 C37.52706571 7.44411007 37.16391345 12.38565311 37.1953125 17.265625 C37.20885521 18.56898804 37.20885521 18.56898804 37.22267151 19.89868164 C37.23714144 21.73092214 37.24605263 23.56321392 37.24975586 25.39550781 C37.2616809 28.19424232 37.31091989 30.99079093 37.36132812 33.7890625 C37.37079002 35.57290595 37.37802618 37.35676288 37.3828125 39.140625 C37.40234482 39.97408447 37.42187714 40.80754395 37.44200134 41.66625977 C37.40849305 45.99041258 37.22724801 47.68738168 34.47680664 51.20703125 C29.98297889 54.58867282 25.83536516 54.3912977 20.4296875 54.44140625 C19.60471268 54.449478 18.77973785 54.45754974 17.92976379 54.46586609 C16.18391003 54.47969073 14.43802943 54.49042013 12.69213867 54.49829102 C10.03186408 54.51549472 7.37283567 54.55939273 4.71289062 54.60351562 C3.01433203 54.61364404 1.3157629 54.62215968 -0.3828125 54.62890625 C-1.17363724 54.64641434 -1.96446198 54.66392242 -2.7792511 54.68196106 C-8.03069997 54.66149424 -11.00824709 53.68315571 -15.17578125 50.203125 C-16.29815406 47.95837937 -16.32455846 46.69122101 -16.36865234 44.19995117 C-16.38471527 43.37536911 -16.4007782 42.55078705 -16.41732788 41.70121765 C-16.46180653 37.92834301 -16.50284388 34.15564391 -16.52587891 30.38256836 C-16.54243676 28.39319153 -16.56972453 26.40387415 -16.60791016 24.41479492 C-16.66270389 21.54574745 -16.68455642 18.67809413 -16.69921875 15.80859375 C-16.72188812 14.92197556 -16.7445575 14.03535736 -16.76791382 13.12187195 C-16.75268141 8.66423906 -16.63581107 6.7990183 -13.83056641 3.1652832 C-9.36931647 -0.13203754 -5.33479818 0.02925361 0 0 Z " fill="#9FD679" transform="translate(175.17578125,175.796875)"/>
<path d="M0 0 C0.82450653 -0.0159874 1.64901306 -0.03197479 2.49850464 -0.04844666 C3.82979904 -0.05649071 3.82979904 -0.05649071 5.18798828 -0.06469727 C6.10411896 -0.07372574 7.02024963 -0.08275421 7.96414185 -0.09205627 C9.90249359 -0.10656437 11.84089436 -0.1154469 13.77929688 -0.11914062 C16.74058848 -0.13103239 19.69979309 -0.18020744 22.66064453 -0.23071289 C24.54474895 -0.24017778 26.42886616 -0.2474125 28.31298828 -0.25219727 C29.19646942 -0.27172958 30.07995056 -0.2912619 30.99020386 -0.31138611 C35.43596844 -0.27886348 37.29709792 -0.14690418 40.91894531 2.65380859 C44.22069332 7.11235844 44.05717315 11.14755889 44.08642578 16.48217773 C44.09212585 17.28495651 44.09782593 18.08773529 44.10369873 18.9148407 C44.11314117 20.61362391 44.11967971 22.31242539 44.12353516 24.01123047 C44.13322582 26.59888024 44.16424936 29.18573045 44.19580078 31.77319336 C44.20233279 33.42618345 44.20758249 35.07917921 44.21142578 36.73217773 C44.22377258 37.50112869 44.23611938 38.27007965 44.24884033 39.06233215 C44.22918378 43.84781192 43.62049555 47.20871854 40.88330078 51.30639648 C38.11392331 53.01744472 35.97767877 53.56396198 32.74487305 53.61279297 C31.53825768 53.63677406 31.53825768 53.63677406 30.30726624 53.66123962 C29.4467717 53.66660233 28.58627716 53.67196503 27.69970703 53.67749023 C26.36092751 53.69103294 26.36092751 53.69103294 24.99510193 53.70484924 C23.10980579 53.71933877 21.22445952 53.72823526 19.33911133 53.73193359 C16.45909874 53.7438415 13.58122148 53.79304769 10.70166016 53.84350586 C8.86768621 53.8529693 7.03369914 53.86020471 5.19970703 53.86499023 C4.34123672 53.88452255 3.48276642 53.90405487 2.59828186 53.92417908 C-1.78712049 53.89117447 -3.56557135 53.73481385 -7.13647461 50.95898438 C-10.46059587 46.50619465 -10.29053809 42.47134256 -10.31982422 37.13061523 C-10.32552429 36.32783646 -10.33122437 35.52505768 -10.33709717 34.69795227 C-10.34653961 32.99916905 -10.35307815 31.30036758 -10.35693359 29.6015625 C-10.36662426 27.01391273 -10.3976478 24.42706252 -10.42919922 21.83959961 C-10.43573123 20.18660952 -10.44098093 18.53361376 -10.44482422 16.88061523 C-10.45717102 16.11166428 -10.46951782 15.34271332 -10.48223877 14.55046082 C-10.46251606 9.74887532 -9.78853523 6.4561945 -7.11669922 2.30639648 C-4.07509539 0.2786606 -3.42660158 0.05033025 0 0 Z " fill="#FD646A" transform="translate(239.11669921875,105.693603515625)"/>
<path d="M0 0 C0.79994888 -0.00428513 1.59989777 -0.00857025 2.42408752 -0.01298523 C4.1109218 -0.01871154 5.79778075 -0.01924135 7.48461914 -0.01489258 C10.05463087 -0.01173323 12.6234898 -0.03520979 15.19335938 -0.06054688 C16.83723814 -0.06282023 18.48111998 -0.06352319 20.125 -0.0625 C20.88767685 -0.07170975 21.6503537 -0.08091949 22.43614197 -0.09040833 C27.21170905 -0.04933268 30.50038972 0.65064906 34.62890625 3.30078125 C36.65664213 6.34238507 36.88497248 6.99087889 36.93530273 10.41748047 C36.95129013 11.241987 36.96727753 12.06649353 36.98374939 12.91598511 C36.98911209 13.80351471 36.99447479 14.69104431 37 15.60546875 C37.01354271 16.97966476 37.01354271 16.97966476 37.02735901 18.38162231 C37.0418671 20.31997405 37.05074963 22.25837483 37.05444336 24.19677734 C37.06633512 27.15806895 37.11551017 30.11727356 37.16601562 33.078125 C37.17548052 34.96222942 37.18271524 36.84634663 37.1875 38.73046875 C37.20703232 39.61394989 37.22656464 40.49743103 37.24668884 41.40768433 C37.21416622 45.85344891 37.08220692 47.71457839 34.28149414 51.33642578 C29.82294429 54.63817379 25.78774385 54.47465362 20.453125 54.50390625 C19.24895683 54.51245636 19.24895683 54.51245636 18.02046204 54.5211792 C16.32167882 54.53062164 14.62287735 54.53716018 12.92407227 54.54101562 C10.33642249 54.55070629 7.74957229 54.58172983 5.16210938 54.61328125 C3.50911928 54.61981326 1.85612353 54.62506296 0.203125 54.62890625 C-0.56582596 54.64125305 -1.33477692 54.65359985 -2.12702942 54.6663208 C-6.92861492 54.64659809 -10.22129573 53.97261726 -14.37109375 51.30078125 C-16.98559566 47.37902838 -16.67680966 44.02027649 -16.671875 39.46875 C-16.67616013 38.59938309 -16.68044525 37.73001617 -16.68486023 36.83430481 C-16.69060344 34.99428172 -16.69110386 33.15423593 -16.68676758 31.31420898 C-16.68361725 28.50920426 -16.70703283 25.70526419 -16.73242188 22.90039062 C-16.73469594 21.11067841 -16.73539786 19.32096337 -16.734375 17.53125 C-16.74358475 16.6966777 -16.75279449 15.86210541 -16.76228333 15.00224304 C-16.72349391 10.07824455 -16.29467318 6.46302358 -13.37109375 2.30078125 C-9.26142741 -0.27442422 -4.71368801 -0.005618 0 0 Z " fill="#FDA056" transform="translate(316.37109375,175.69921875)"/>
<path d="M0 0 C0.82214493 -0.00428513 1.64428986 -0.00857025 2.49134827 -0.01298523 C4.22526125 -0.01871247 5.95919825 -0.01924066 7.69311523 -0.01489258 C10.3355435 -0.01173323 12.97685063 -0.03520884 15.61914062 -0.06054688 C17.30859235 -0.06282021 18.99804706 -0.0635232 20.6875 -0.0625 C21.86432594 -0.07631462 21.86432594 -0.07631462 23.06492615 -0.09040833 C27.86584564 -0.05022552 31.34159664 0.47816267 35.41015625 3.30078125 C37.98536172 7.41044759 37.7165555 11.95818699 37.7109375 16.671875 C37.71522263 17.47182388 37.71950775 18.27177277 37.72392273 19.09596252 C37.72964904 20.7827968 37.73017885 22.46965575 37.72583008 24.15649414 C37.72267073 26.72650587 37.74614729 29.2953648 37.77148438 31.86523438 C37.77375773 33.50911314 37.77446069 35.15299498 37.7734375 36.796875 C37.78264725 37.55955185 37.79185699 38.3222287 37.80134583 39.10801697 C37.76027018 43.88358405 37.06028844 47.17226472 34.41015625 51.30078125 C31.36855243 53.32851713 30.72005861 53.55684748 27.29345703 53.60717773 C26.4689505 53.62316513 25.64444397 53.63915253 24.79495239 53.65562439 C23.46365799 53.66366844 23.46365799 53.66366844 22.10546875 53.671875 C20.73127274 53.68541771 20.73127274 53.68541771 19.32931519 53.69923401 C17.39096345 53.7137421 15.45256267 53.72262463 13.51416016 53.72631836 C10.55286855 53.73821012 7.59366394 53.78738517 4.6328125 53.83789062 C2.74870808 53.84735552 0.86459087 53.85459024 -1.01953125 53.859375 C-2.34475296 53.88867348 -2.34475296 53.88867348 -3.69674683 53.91856384 C-8.14251141 53.88604122 -10.00364089 53.75408192 -13.62548828 50.95336914 C-16.92723629 46.49481929 -16.76371612 42.45961885 -16.79296875 37.125 C-16.79866882 36.32222122 -16.8043689 35.51944244 -16.8102417 34.69233704 C-16.81968414 32.99355382 -16.82622268 31.29475235 -16.83007812 29.59594727 C-16.83976879 27.00829749 -16.87079233 24.42144729 -16.90234375 21.83398438 C-16.90887576 20.18099428 -16.91412546 18.52799853 -16.91796875 16.875 C-16.93031555 16.10604904 -16.94266235 15.33709808 -16.9553833 14.54484558 C-16.93578415 9.77334142 -16.3904841 6.34721053 -13.58984375 2.30078125 C-9.4335013 -0.32022934 -4.77234973 -0.00552974 0 0 Z " fill="#FDDB6A" transform="translate(245.58984375,246.69921875)"/>
<path d="M0 0 C0.87315353 -0.00570007 1.74630707 -0.01140015 2.6459198 -0.01727295 C4.49611192 -0.02672845 6.34632093 -0.03325911 8.1965332 -0.03710938 C11.02129719 -0.04680065 13.84532919 -0.07781255 16.66992188 -0.109375 C18.4674436 -0.11590652 20.26497052 -0.12115641 22.0625 -0.125 C22.90537064 -0.1373468 23.74824127 -0.1496936 24.61665344 -0.16241455 C30.53833581 -0.14003216 33.93605251 0.90870876 38.23046875 5.203125 C38.50462341 7.04243469 38.50462341 7.04243469 38.53686523 9.2980957 C38.55285263 10.14269852 38.56884003 10.98730133 38.58531189 11.85749817 C38.59067459 12.77206284 38.59603729 13.6866275 38.6015625 14.62890625 C38.61510521 16.03851875 38.61510521 16.03851875 38.62892151 17.47660828 C38.64344723 19.46801558 38.65231649 21.45947087 38.65600586 23.45092773 C38.66788238 26.49349923 38.71702782 29.53402997 38.76757812 32.57617188 C38.7770444 34.51040676 38.78427846 36.44465412 38.7890625 38.37890625 C38.80859482 39.28739822 38.82812714 40.1958902 38.84825134 41.13191223 C38.81819964 45.35486121 38.58543485 47.63624152 36.30517578 51.27783203 C31.98319262 53.98413338 28.48457671 53.90562467 23.4765625 53.83203125 C22.06975975 53.83564919 22.06975975 53.83564919 20.63453674 53.83934021 C18.65678671 53.83836286 16.67900894 53.82499608 14.70141602 53.80004883 C11.67434886 53.7656974 8.65019493 53.77940599 5.62304688 53.79882812 C3.69920633 53.79193063 1.77537331 53.78225912 -0.1484375 53.76953125 C-1.0526796 53.77449112 -1.95692169 53.77945099 -2.88856506 53.78456116 C-9.13155145 53.66748399 -9.13155145 53.66748399 -12.30834961 51.35522461 C-15.29983045 46.94922567 -14.9629338 42.46226641 -15.0078125 37.3359375 C-15.01588425 36.46419891 -15.02395599 35.59246033 -15.03227234 34.69430542 C-15.04609787 32.85009746 -15.05682687 31.00586408 -15.06469727 29.16162109 C-15.08192474 26.34553518 -15.1258253 23.53061915 -15.16992188 20.71484375 C-15.18004803 18.92188362 -15.18856437 17.12891353 -15.1953125 15.3359375 C-15.22157463 14.07633713 -15.22157463 14.07633713 -15.24836731 12.79129028 C-15.23333676 8.72859197 -15.09016882 6.71036548 -12.86791992 3.19482422 C-8.94094817 -0.53248649 -5.15405886 0.02580163 0 0 Z " fill="#FEFEFE" transform="translate(314.76953125,246.796875)"/>
<path d="M0 0 C0.88968979 -0.00241196 1.77937958 -0.00482391 2.69602966 -0.00730896 C4.56945267 -0.00633297 6.44290541 0.00700137 8.31616211 0.03198242 C11.17856988 0.06634594 14.03789689 0.05261569 16.90039062 0.03320312 C18.72527351 0.04010073 20.55014846 0.04977235 22.375 0.0625 C23.2271962 0.05754013 24.0793924 0.05258026 24.95741272 0.04747009 C29.02940874 0.12796557 31.11949216 0.31111559 34.63647461 2.53930664 C38.35987172 6.45966042 37.79845764 10.25247272 37.82421875 15.3984375 C37.82991882 16.27159103 37.8356189 17.14474457 37.8414917 18.0443573 C37.8509472 19.89454942 37.85747786 21.74475843 37.86132812 23.5949707 C37.8710194 26.41973469 37.9020313 29.24376669 37.93359375 32.06835938 C37.94012527 33.8658811 37.94537516 35.66340802 37.94921875 37.4609375 C37.96156555 38.30380814 37.97391235 39.14667877 37.9866333 40.01509094 C37.968894 44.7083561 37.70010055 47.83876973 34.62109375 51.62890625 C31.57948993 53.65664213 30.93099611 53.88497248 27.50439453 53.93530273 C26.679888 53.95129013 25.85538147 53.96727753 25.00588989 53.98374939 C23.67459549 53.99179344 23.67459549 53.99179344 22.31640625 54 C20.94221024 54.01354271 20.94221024 54.01354271 19.54025269 54.02735901 C17.60190095 54.0418671 15.66350017 54.05074963 13.72509766 54.05444336 C10.76380605 54.06633512 7.80460144 54.11551017 4.84375 54.16601562 C2.95964558 54.17548052 1.07552837 54.18271524 -0.80859375 54.1875 C-2.13381546 54.21679848 -2.13381546 54.21679848 -3.48580933 54.24668884 C-7.64936679 54.21623068 -9.84748301 53.96425806 -13.43334961 51.70141602 C-16.15793934 47.39862248 -16.11698912 43.91323226 -16.078125 38.91015625 C-16.0852803 37.97465942 -16.09243561 37.0391626 -16.09980774 36.07531738 C-16.10757557 34.10181632 -16.10259204 32.12822916 -16.08569336 30.15478516 C-16.0664642 27.137998 -16.10586478 24.12581642 -16.15039062 21.109375 C-16.15068099 19.18879935 -16.14754086 17.26821947 -16.140625 15.34765625 C-16.15590744 14.44857544 -16.17118988 13.54949463 -16.18693542 12.62316895 C-16.10279004 8.09341887 -15.82931051 6.19032564 -12.91748047 2.56079102 C-8.87961836 -0.17532136 -4.73637481 -0.07386253 0 0 Z " fill="#468CBE" transform="translate(174.37890625,246.37109375)"/>
<path d="M0 0 C0.93549683 -0.00336868 1.87099365 -0.00673737 2.83483887 -0.01020813 C4.80840566 -0.00990975 6.78201925 0.00529508 8.75537109 0.03442383 C11.77195003 0.07409644 14.78413011 0.05512858 17.80078125 0.02929688 C19.72137118 0.03685644 21.64195137 0.04781036 23.5625 0.0625 C24.91112122 0.05202385 24.91112122 0.05202385 26.2869873 0.04133606 C30.48015348 0.13563279 32.74786509 0.42272414 36.34936523 2.71166992 C39.03852436 6.95729926 38.98472508 10.32799807 38.91015625 15.26171875 C38.91256821 16.17501953 38.91498016 17.08832031 38.91746521 18.02929688 C38.9164879 19.95577344 38.90312193 21.88227848 38.87817383 23.80859375 C38.84386008 26.75227549 38.85752153 29.69295464 38.87695312 32.63671875 C38.87005439 34.51173149 38.86038177 36.3867365 38.84765625 38.26171875 C38.85261612 39.13892578 38.85757599 40.01613281 38.86268616 40.91992188 C38.78414386 45.00841664 38.60314004 47.23369831 36.43334961 50.79296875 C32.32812138 54.54844923 27.67637236 53.95393084 22.4140625 54 C21.54232391 54.00807175 20.67058533 54.01614349 19.77243042 54.02445984 C17.92822246 54.03828537 16.08398908 54.04901437 14.23974609 54.05688477 C11.42366018 54.07411224 8.60874415 54.1180128 5.79296875 54.16210938 C4.00000862 54.17223553 2.20703853 54.18075187 0.4140625 54.1875 C-0.42567108 54.20500809 -1.26540466 54.22251617 -2.13058472 54.24055481 C-6.15051703 54.22568248 -8.22212413 54.06532877 -11.72705078 51.92260742 C-16.74059878 46.4831721 -15.02343416 36.80626077 -15.06884766 29.77514648 C-15.085403 27.89643971 -15.11268761 26.01779581 -15.15087891 24.1394043 C-15.20577793 21.42333482 -15.22753998 18.70873782 -15.2421875 15.9921875 C-15.26485687 15.1576152 -15.28752625 14.32304291 -15.31088257 13.46318054 C-15.29677519 9.54933036 -15.02624028 6.52660885 -12.79345703 3.23242188 C-8.51921206 -0.20217866 -5.34068443 -0.09078015 0 0 Z " fill="#FE6469" transform="translate(314.71875,361.23828125)"/>
<path d="M0 0 C1.36995117 -0.00361794 1.36995117 -0.00361794 2.76757812 -0.00730896 C4.69405469 -0.00633165 6.62055973 0.00703432 8.546875 0.03198242 C11.49055674 0.06629617 14.43123589 0.05263472 17.375 0.03320312 C19.25001274 0.04010186 21.12501775 0.04977448 23 0.0625 C24.31581055 0.0550602 24.31581055 0.0550602 25.65820312 0.04747009 C29.78950767 0.12683479 31.96197787 0.28982578 35.53125 2.53930664 C39.23208694 6.46731549 38.67739779 10.25924437 38.703125 15.3984375 C38.70882507 16.27159103 38.71452515 17.14474457 38.72039795 18.0443573 C38.72985345 19.89454942 38.73638411 21.74475843 38.74023438 23.5949707 C38.74992565 26.41973469 38.78093755 29.24376669 38.8125 32.06835938 C38.81903152 33.8658811 38.82428141 35.66340802 38.828125 37.4609375 C38.8404718 38.30380814 38.8528186 39.14667877 38.86553955 40.01509094 C38.84790344 44.68105647 38.63636912 47.90767778 35.5 51.62890625 C32.7360057 53.28281064 30.65927895 53.88383876 27.45336914 53.91943359 C26.66897964 53.9321933 25.88459015 53.944953 25.07643127 53.95809937 C24.23781052 53.96032501 23.39918976 53.96255066 22.53515625 53.96484375 C21.22967079 53.97482895 21.22967079 53.97482895 19.89781189 53.98501587 C18.0595816 53.99512763 16.22131471 53.99983335 14.38305664 53.99951172 C11.57571806 54.00388566 8.76995126 54.04022168 5.96289062 54.078125 C4.17448453 54.08399339 2.38607099 54.08796263 0.59765625 54.08984375 C-0.65723854 54.1114003 -0.65723854 54.1114003 -1.93748474 54.13339233 C-5.98770551 54.10174695 -8.003255 53.943502 -11.50610352 51.72509766 C-14.18570927 48.90801733 -14.62606279 47.40034926 -14.69287109 43.62573242 C-14.70893402 42.80115036 -14.72499695 41.9765683 -14.74154663 41.1269989 C-14.78602528 37.35412426 -14.82706263 33.58142516 -14.85009766 29.80834961 C-14.86665551 27.81897278 -14.89394328 25.8296554 -14.93212891 23.84057617 C-14.98692264 20.9715287 -15.00877517 18.10387538 -15.0234375 15.234375 C-15.04610687 14.34775681 -15.06877625 13.46113861 -15.09213257 12.5476532 C-15.07782748 8.36139302 -14.8432346 6.17076919 -12.56103516 2.56787109 C-8.30805514 -0.12611258 -4.94221655 -0.07469724 0 0 Z " fill="#00DBCC" transform="translate(173.5,361.37109375)"/>
<path d="M0 0 C1.23687309 -0.02409439 1.23687309 -0.02409439 2.49873352 -0.04867554 C6.27160816 -0.09315418 10.04430726 -0.13419153 13.81738281 -0.15722656 C15.80675964 -0.17378441 17.79607702 -0.20107219 19.78515625 -0.23925781 C22.65420372 -0.29405154 25.52185704 -0.31590407 28.39135742 -0.33056641 C29.27797562 -0.35323578 30.16459381 -0.37590515 31.07807922 -0.39926147 C35.2643394 -0.38495639 37.45496324 -0.15036351 41.05786133 2.13183594 C43.751845 6.38481595 43.70042966 9.75065454 43.62573242 14.69287109 C43.62814438 15.60617188 43.63055634 16.51947266 43.63304138 17.46044922 C43.63206407 19.38692578 43.6186981 21.31343083 43.59375 23.23974609 C43.55943625 26.18342784 43.5730977 29.12410698 43.5925293 32.06787109 C43.58563057 33.94288383 43.57595794 35.81788885 43.56323242 37.69287109 C43.56819229 38.57007813 43.57315216 39.44728516 43.57826233 40.35107422 C43.49972004 44.43956899 43.31871621 46.66485066 41.14892578 50.22412109 C37.04369755 53.97960158 32.39194853 53.38508319 27.12963867 53.43115234 C26.25790009 53.43922409 25.3861615 53.44729584 24.48800659 53.45561218 C22.64379863 53.46943771 20.79956525 53.48016671 18.95532227 53.48803711 C16.13923635 53.50526459 13.32432032 53.54916515 10.50854492 53.59326172 C8.71558479 53.60338787 6.9226147 53.61190422 5.12963867 53.61865234 C4.28990509 53.63616043 3.45017151 53.65366852 2.58499146 53.67170715 C-1.43494086 53.65683482 -3.50654796 53.49648111 -7.01147461 51.35375977 C-10.79324632 47.25073679 -10.19526799 42.6014639 -10.24145508 37.32568359 C-10.24952682 36.45394501 -10.25759857 35.58220642 -10.26591492 34.68405151 C-10.27974045 32.83984356 -10.29046945 30.99561017 -10.29833984 29.15136719 C-10.31556732 26.33528127 -10.35946788 23.52036524 -10.40356445 20.70458984 C-10.41369061 18.91162971 -10.42220695 17.11865962 -10.42895508 15.32568359 C-10.45521721 14.06608322 -10.45521721 14.06608322 -10.48200989 12.78103638 C-10.46697934 8.71833806 -10.3238114 6.70011157 -8.1015625 3.18457031 C-5.28227047 0.508621 -3.77409369 0.06679904 0 0 Z " fill="#01DBCC" transform="translate(310.003173828125,105.80712890625)"/>
<path d="M0 0 C1.36995117 -0.00361794 1.36995117 -0.00361794 2.76757812 -0.00730896 C4.69405469 -0.00633165 6.62055973 0.00703432 8.546875 0.03198242 C11.49055674 0.06629617 14.43123589 0.05263472 17.375 0.03320312 C19.25001274 0.04010186 21.12501775 0.04977448 23 0.0625 C24.31581055 0.0550602 24.31581055 0.0550602 25.65820312 0.04747009 C29.78950767 0.12683479 31.96197787 0.28982578 35.53125 2.53930664 C39.23208694 6.46731549 38.67739779 10.25924437 38.703125 15.3984375 C38.70882507 16.27159103 38.71452515 17.14474457 38.72039795 18.0443573 C38.72985345 19.89454942 38.73638411 21.74475843 38.74023438 23.5949707 C38.74992565 26.41973469 38.78093755 29.24376669 38.8125 32.06835938 C38.81903152 33.8658811 38.82428141 35.66340802 38.828125 37.4609375 C38.8404718 38.30380814 38.8528186 39.14667877 38.86553955 40.01509094 C38.84790344 44.68105647 38.63636912 47.90767778 35.5 51.62890625 C32.7360057 53.28281064 30.65927895 53.88383876 27.45336914 53.91943359 C26.66897964 53.9321933 25.88459015 53.944953 25.07643127 53.95809937 C24.23781052 53.96032501 23.39918976 53.96255066 22.53515625 53.96484375 C21.22967079 53.97482895 21.22967079 53.97482895 19.89781189 53.98501587 C18.0595816 53.99512763 16.22131471 53.99983335 14.38305664 53.99951172 C11.57571806 54.00388566 8.76995126 54.04022168 5.96289062 54.078125 C4.17448453 54.08399339 2.38607099 54.08796263 0.59765625 54.08984375 C-0.65723854 54.1114003 -0.65723854 54.1114003 -1.93748474 54.13339233 C-5.98770551 54.10174695 -8.003255 53.943502 -11.50610352 51.72509766 C-14.18570927 48.90801733 -14.62606279 47.40034926 -14.69287109 43.62573242 C-14.70893402 42.80115036 -14.72499695 41.9765683 -14.74154663 41.1269989 C-14.78602528 37.35412426 -14.82706263 33.58142516 -14.85009766 29.80834961 C-14.86665551 27.81897278 -14.89394328 25.8296554 -14.93212891 23.84057617 C-14.98692264 20.9715287 -15.00877517 18.10387538 -15.0234375 15.234375 C-15.04610687 14.34775681 -15.06877625 13.46113861 -15.09213257 12.5476532 C-15.07782748 8.36139302 -14.8432346 6.17076919 -12.56103516 2.56787109 C-8.30805514 -0.12611258 -4.94221655 -0.07469724 0 0 Z " fill="#FEDB69" transform="translate(173.5,105.37109375)"/>
<path d="M0 0 C1.08477631 -0.00637985 2.16955261 -0.0127597 3.28720093 -0.01933289 C4.45908966 -0.02044571 5.63097839 -0.02155853 6.83837891 -0.02270508 C8.04305817 -0.02603348 9.24773743 -0.02936188 10.48892212 -0.03279114 C13.0393231 -0.03785772 15.58973071 -0.04019955 18.14013672 -0.04003906 C22.04226616 -0.04222363 25.94411208 -0.06037726 29.84619141 -0.0793457 C32.32275294 -0.08228004 34.79931581 -0.08426457 37.27587891 -0.08520508 C38.44371918 -0.09239059 39.61155945 -0.09957611 40.81478882 -0.10697937 C42.45140976 -0.10236443 42.45140976 -0.10236443 44.12109375 -0.09765625 C45.55646988 -0.09979378 45.55646988 -0.09979378 47.02084351 -0.10197449 C50.83526467 0.2513548 53.6865156 1.21103964 56.50244141 3.83276367 C58.22556169 7.18831371 58.2120223 9.42543732 57.68994141 13.14526367 C56.0376437 15.76442264 55.33986398 16.72300737 52.68994141 18.14526367 C48.2161559 18.9084025 43.78164515 18.84539471 39.25244141 18.80932617 C37.28319702 18.81650162 37.28319702 18.81650162 35.27416992 18.82382202 C32.50002513 18.83117853 29.72668739 18.82052954 26.95263672 18.79711914 C23.40464543 18.76862939 19.85854514 18.78504031 16.31062317 18.81498146 C12.91607945 18.83744072 9.52203879 18.82169526 6.12744141 18.80932617 C4.85650635 18.81944733 3.58557129 18.82956848 2.27612305 18.83999634 C-7.51396941 18.70975582 -7.51396941 18.70975582 -10.61474609 15.82250977 C-12.86215487 12.27339043 -12.97382798 10.27538432 -12.31005859 6.14526367 C-8.93501969 0.79175369 -6.08958716 0.02429775 0 0 Z " fill="#464655" transform="translate(233.31005859375,25.854736328125)"/>
<path d="M0 0 C3.96431088 2.91393791 6.29146178 6.73376033 7.828125 11.34375 C8.43660524 17.327139 7.6913313 20.62838209 4.265625 25.58203125 C1.86005931 28.5301566 -0.78091156 30.64826828 -4.171875 32.34375 C-9.72718748 32.8510465 -14.59017736 33.10635422 -19.671875 30.65625 C-24.55401143 26.1402738 -27.87765469 22.28595314 -28.546875 15.59375 C-28.38039389 9.64482514 -25.94829558 5.07462134 -21.734375 0.96875 C-14.45618799 -3.64668567 -7.56743979 -4.17102981 0 0 Z " fill="#464655" transform="translate(266.171875,461.65625)"/>
<path d="M0 0 C4.67394807 3.260894 8.19592213 7.31548247 9.6875 12.875 C10.3618221 18.83151192 8.97307619 22.99448391 5.6875 27.875 C0.57170252 32.73500761 -3.7374523 34.4081869 -10.7109375 34.25390625 C-16.53274488 33.40598536 -20.21695612 30.27954344 -23.75 25.75 C-26.20231207 21.23774579 -26.7317229 17.98951942 -26.3125 12.875 C-24.3569596 6.98602975 -21.34294398 3.40701386 -16.3125 -0.125 C-10.91330143 -1.92473286 -5.37692735 -1.82612627 0 0 Z " fill="#FCDB6A" transform="translate(264.3125,372.125)"/>
<path d="M0 0 C3.79504091 2.55483146 5.99285165 6.08811924 7.79296875 10.20703125 C8.83040837 16.62468102 7.49516616 21.90615768 3.79296875 27.20703125 C-0.44492633 31.33626235 -4.17681452 32.97405556 -10.01953125 33.64453125 C-14.97992186 33.51325437 -18.43349754 31.27773385 -22.20703125 28.20703125 C-26.83443965 23.22366836 -27.51385891 19.30427407 -27.41796875 12.70703125 C-26.9865059 7.59339746 -24.96583719 4.93284563 -21.33203125 1.45703125 C-14.16645172 -3.70218601 -7.78762894 -4.26286071 0 0 Z " fill="#FDDB69" transform="translate(195.20703125,187.79296875)"/>
<path d="M0 0 C5.04440956 1.85934435 9.00432987 5.0464682 11.37109375 9.91796875 C12.9264317 15.06700682 12.98740141 20.26985786 11.15234375 25.34375 C8.72668835 29.75104252 5.80924168 32.41352948 1.1796875 34.37890625 C-3.86718974 35.81699493 -8.23667529 35.5877749 -13.1875 33.9375 C-17.65626455 30.85901775 -21.26724831 27.19825506 -23 22 C-23.5635668 16.31014289 -23.32796433 11.83091597 -20 7 C-13.61326946 0.70197405 -9.06854136 -1.06472753 0 0 Z " fill="#FC6569" transform="translate(332,115)"/>
<path d="M0 0 C1.12792969 -0.01933594 2.25585938 -0.03867187 3.41796875 -0.05859375 C11.61256369 -0.01010502 11.61256369 -0.01010502 15.7421875 2.9453125 C18.08200145 6.51222888 18.24768961 8.43793819 17.5 12.625 C14.95862841 15.78454305 13.35377341 17.34040886 9.5 18.625 C6.23403032 18.90275109 2.96399525 18.9023696 -0.3125 18.9375 C-1.20259766 18.96650391 -2.09269531 18.99550781 -3.00976562 19.02539062 C-8.83443209 19.08152158 -12.05730199 18.48106156 -16.5 14.625 C-18.06935594 11.48628812 -17.85201103 9.08644178 -17.5 5.625 C-13.19768138 -1.02140701 -7.1505669 -0.12258115 0 0 Z " fill="#FAFCFD" transform="translate(185.5,264.375)"/>
<path d="M0 0 C1.12792969 -0.01933594 2.25585938 -0.03867187 3.41796875 -0.05859375 C11.61256369 -0.01010502 11.61256369 -0.01010502 15.7421875 2.9453125 C18.08200145 6.51222888 18.24768961 8.43793819 17.5 12.625 C14.95862841 15.78454305 13.35377341 17.34040886 9.5 18.625 C6.40025179 18.87605336 3.29637729 18.85622942 0.1875 18.875 C-0.65490234 18.895625 -1.49730469 18.91625 -2.36523438 18.9375 C-7.49222251 18.96956873 -11.09498816 18.54801561 -15.5 15.625 C-18.00031654 11.87452518 -18.03603554 10.06643734 -17.5 5.625 C-13.1846265 -1.01700664 -7.15790151 -0.12270688 0 0 Z " fill="#FF676C" transform="translate(326.5,264.375)"/>
<path d="M0 0 C0.88107422 -0.01611328 1.76214844 -0.03222656 2.66992188 -0.04882812 C7.89036037 -0.05273857 11.55115592 0.39086765 16.0625 3.3125 C18.06477445 5.83710691 18.07248065 7.07296431 17.9375 10.3125 C16.94038701 13.73117312 15.79007889 15.08084454 13.0625 17.3125 C9.08198202 19.30275899 4.12702497 18.62881959 -0.25 18.6875 C-1.29607422 18.72488281 -2.34214844 18.76226562 -3.41992188 18.80078125 C-11.15510414 18.88940842 -11.15510414 18.88940842 -15.10546875 15.9765625 C-17.23013056 12.88696899 -17.9375 11.06448921 -17.9375 7.3125 C-16.71138428 4.31532824 -15.77932491 2.78530577 -12.94140625 1.19140625 C-8.61694026 -0.07387964 -4.48269755 -0.01632446 0 0 Z " fill="#458BBC" transform="translate(255.9375,193.6875)"/>
<path d="M0 0 C3.44347346 0.92335075 4.94574523 2.65638377 6.9375 5.51953125 C7.49628277 9.43101066 7.16932354 12.23052813 4.9375 15.51953125 C1.2001144 18.01112165 -0.63581583 17.9774641 -5.0625 17.51953125 C-8.81129143 15.4821446 -9.83419934 14.20443324 -11.1875 10.14453125 C-11.0625 6.51953125 -11.0625 6.51953125 -9.125 3.08203125 C-5.74260719 0.25186583 -4.27495572 -0.3481498 0 0 Z " fill="#474756" transform="translate(196.0625,26.48046875)"/>
<path d="M0 0 C3 2.0625 3 2.0625 5 5 C5.625 8.5 5.625 8.5 5 12 C2.9375 14.9375 2.9375 14.9375 0 17 C-4.08316143 17.65622237 -6.22793965 17.37781677 -9.9375 15.5625 C-12.5640356 12.29922849 -12.67360891 10.22931044 -12.41015625 6.12890625 C-12 4 -12 4 -10.5 1.4375 C-6.99753422 -0.57641782 -3.87856287 -0.87555677 0 0 Z " fill="#FBFDFE" transform="translate(295,327)"/>
<path d="M0 0 C2.5 1.4375 2.5 1.4375 4 4 C4.60318106 7.13079693 4.65375511 9.87459178 4 13 C1.33120085 16.31578076 -0.31607564 16.89008359 -4.5 17.5625 C-8 17 -8 17 -10.9375 14.9375 C-13 12 -13 12 -13.625 8.5 C-13 5 -13 5 -11 2.0625 C-6.84919686 -0.79117716 -4.9698922 -0.7099846 0 0 Z " fill="#464757" transform="translate(225,327)"/>
<path d="M0 0 C3.06458538 2.04305692 3.82153128 3.44079802 4.9375 6.9375 C5.01245915 10.61049821 4.178742 12.09501066 2 15 C0 17 0 17 -3.875 17.375 C-6.84068565 17.28349972 -7.86650384 17.08557446 -10.4375 15.4375 C-12.49240979 12.23184073 -12.86470518 9.78825503 -13 6 C-10.99648858 -0.17749356 -5.88529454 -0.94924106 0 0 Z " fill="#FCFDFE" transform="translate(260,327)"/>
</svg>
